<mxfile host="app.diagrams.net" modified="2023-11-29T13:18:33.874Z" agent="Mozilla/5.0 (Macintosh; Intel Mac OS X 10_15_7) AppleWebKit/537.36 (KHTML, like Gecko) Chrome/119.0.0.0 Safari/537.36" etag="1h6pEG3np2FWvXv0s_Ji" version="22.1.4" type="device">
  <diagram id="C5RBs43oDa-KdzZeNtuy" name="Page-1">
    <mxGraphModel dx="1204" dy="726" grid="1" gridSize="10" guides="1" tooltips="1" connect="1" arrows="1" fold="1" page="1" pageScale="1" pageWidth="827" pageHeight="1169" math="0" shadow="0">
      <root>
        <mxCell id="WIyWlLk6GJQsqaUBKTNV-0" />
        <mxCell id="WIyWlLk6GJQsqaUBKTNV-1" parent="WIyWlLk6GJQsqaUBKTNV-0" />
        <mxCell id="zkfFHV4jXpPFQw0GAbJ--0" value="Order" style="swimlane;fontStyle=0;align=center;verticalAlign=top;childLayout=stackLayout;horizontal=1;startSize=26;horizontalStack=0;resizeParent=1;resizeLast=0;collapsible=1;marginBottom=0;rounded=0;shadow=0;strokeWidth=1;" parent="WIyWlLk6GJQsqaUBKTNV-1" vertex="1">
          <mxGeometry x="218" y="50" width="200" height="60" as="geometry">
            <mxRectangle x="220" y="120" width="160" height="26" as="alternateBounds" />
          </mxGeometry>
        </mxCell>
        <mxCell id="zkfFHV4jXpPFQw0GAbJ--4" value="" style="line;html=1;strokeWidth=1;align=left;verticalAlign=middle;spacingTop=-1;spacingLeft=3;spacingRight=3;rotatable=0;labelPosition=right;points=[];portConstraint=eastwest;" parent="zkfFHV4jXpPFQw0GAbJ--0" vertex="1">
          <mxGeometry y="26" width="200" height="8" as="geometry" />
        </mxCell>
        <mxCell id="zkfFHV4jXpPFQw0GAbJ--5" value="+ getOrderedArticles () : IArticles[]&#xa;" style="text;align=left;verticalAlign=top;spacingLeft=4;spacingRight=4;overflow=hidden;rotatable=0;points=[[0,0.5],[1,0.5]];portConstraint=eastwest;" parent="zkfFHV4jXpPFQw0GAbJ--0" vertex="1">
          <mxGeometry y="34" width="200" height="26" as="geometry" />
        </mxCell>
        <mxCell id="InkQWuYnIZFXSyvk9S77-5" value="&amp;lt;&amp;lt;interface&amp;gt;&amp;gt;&lt;br&gt;IArticle" style="swimlane;fontStyle=1;align=center;verticalAlign=top;childLayout=stackLayout;horizontal=1;startSize=40;horizontalStack=0;resizeParent=1;resizeParentMax=0;resizeLast=0;collapsible=1;marginBottom=0;whiteSpace=wrap;html=1;" vertex="1" parent="WIyWlLk6GJQsqaUBKTNV-1">
          <mxGeometry x="238" y="190" width="160" height="110" as="geometry" />
        </mxCell>
        <mxCell id="InkQWuYnIZFXSyvk9S77-7" value="" style="line;strokeWidth=1;fillColor=none;align=left;verticalAlign=middle;spacingTop=-1;spacingLeft=3;spacingRight=3;rotatable=0;labelPosition=right;points=[];portConstraint=eastwest;strokeColor=inherit;" vertex="1" parent="InkQWuYnIZFXSyvk9S77-5">
          <mxGeometry y="40" width="160" height="8" as="geometry" />
        </mxCell>
        <mxCell id="InkQWuYnIZFXSyvk9S77-8" value="+ getId(): int&lt;br&gt;+ getPrice() : int&lt;br&gt;+ getDescription() : String&lt;br&gt;" style="text;strokeColor=none;fillColor=none;align=left;verticalAlign=top;spacingLeft=4;spacingRight=4;overflow=hidden;rotatable=0;points=[[0,0.5],[1,0.5]];portConstraint=eastwest;whiteSpace=wrap;html=1;" vertex="1" parent="InkQWuYnIZFXSyvk9S77-5">
          <mxGeometry y="48" width="160" height="62" as="geometry" />
        </mxCell>
        <mxCell id="InkQWuYnIZFXSyvk9S77-10" value="Book" style="swimlane;fontStyle=1;align=center;verticalAlign=top;childLayout=stackLayout;horizontal=1;startSize=26;horizontalStack=0;resizeParent=1;resizeParentMax=0;resizeLast=0;collapsible=1;marginBottom=0;whiteSpace=wrap;html=1;" vertex="1" parent="WIyWlLk6GJQsqaUBKTNV-1">
          <mxGeometry x="38" y="350" width="160" height="150" as="geometry" />
        </mxCell>
        <mxCell id="InkQWuYnIZFXSyvk9S77-11" value="- title: String&lt;br&gt;- author : String&lt;br&gt;- year : int&lt;br&gt;- price : int" style="text;strokeColor=none;fillColor=none;align=left;verticalAlign=top;spacingLeft=4;spacingRight=4;overflow=hidden;rotatable=0;points=[[0,0.5],[1,0.5]];portConstraint=eastwest;whiteSpace=wrap;html=1;" vertex="1" parent="InkQWuYnIZFXSyvk9S77-10">
          <mxGeometry y="26" width="160" height="64" as="geometry" />
        </mxCell>
        <mxCell id="InkQWuYnIZFXSyvk9S77-12" value="" style="line;strokeWidth=1;fillColor=none;align=left;verticalAlign=middle;spacingTop=-1;spacingLeft=3;spacingRight=3;rotatable=0;labelPosition=right;points=[];portConstraint=eastwest;strokeColor=inherit;" vertex="1" parent="InkQWuYnIZFXSyvk9S77-10">
          <mxGeometry y="90" width="160" height="8" as="geometry" />
        </mxCell>
        <mxCell id="InkQWuYnIZFXSyvk9S77-13" value="+ getId(): int&lt;br style=&quot;border-color: var(--border-color);&quot;&gt;+ getPrice() : int&lt;br style=&quot;border-color: var(--border-color);&quot;&gt;+ getDescription() : String" style="text;strokeColor=none;fillColor=none;align=left;verticalAlign=top;spacingLeft=4;spacingRight=4;overflow=hidden;rotatable=0;points=[[0,0.5],[1,0.5]];portConstraint=eastwest;whiteSpace=wrap;html=1;" vertex="1" parent="InkQWuYnIZFXSyvk9S77-10">
          <mxGeometry y="98" width="160" height="52" as="geometry" />
        </mxCell>
        <mxCell id="InkQWuYnIZFXSyvk9S77-14" value="DVD" style="swimlane;fontStyle=1;align=center;verticalAlign=top;childLayout=stackLayout;horizontal=1;startSize=26;horizontalStack=0;resizeParent=1;resizeParentMax=0;resizeLast=0;collapsible=1;marginBottom=0;whiteSpace=wrap;html=1;" vertex="1" parent="WIyWlLk6GJQsqaUBKTNV-1">
          <mxGeometry x="238" y="350" width="160" height="140" as="geometry" />
        </mxCell>
        <mxCell id="InkQWuYnIZFXSyvk9S77-15" value="- title: String&lt;br&gt;- year : int&lt;br&gt;- price : int" style="text;strokeColor=none;fillColor=none;align=left;verticalAlign=top;spacingLeft=4;spacingRight=4;overflow=hidden;rotatable=0;points=[[0,0.5],[1,0.5]];portConstraint=eastwest;whiteSpace=wrap;html=1;" vertex="1" parent="InkQWuYnIZFXSyvk9S77-14">
          <mxGeometry y="26" width="160" height="54" as="geometry" />
        </mxCell>
        <mxCell id="InkQWuYnIZFXSyvk9S77-16" value="" style="line;strokeWidth=1;fillColor=none;align=left;verticalAlign=middle;spacingTop=-1;spacingLeft=3;spacingRight=3;rotatable=0;labelPosition=right;points=[];portConstraint=eastwest;strokeColor=inherit;" vertex="1" parent="InkQWuYnIZFXSyvk9S77-14">
          <mxGeometry y="80" width="160" height="8" as="geometry" />
        </mxCell>
        <mxCell id="InkQWuYnIZFXSyvk9S77-17" value="+ getId(): int&lt;br style=&quot;border-color: var(--border-color);&quot;&gt;+ getPrice() : int&lt;br style=&quot;border-color: var(--border-color);&quot;&gt;+ getDescription() : String" style="text;strokeColor=none;fillColor=none;align=left;verticalAlign=top;spacingLeft=4;spacingRight=4;overflow=hidden;rotatable=0;points=[[0,0.5],[1,0.5]];portConstraint=eastwest;whiteSpace=wrap;html=1;" vertex="1" parent="InkQWuYnIZFXSyvk9S77-14">
          <mxGeometry y="88" width="160" height="52" as="geometry" />
        </mxCell>
        <mxCell id="InkQWuYnIZFXSyvk9S77-18" value="CD" style="swimlane;fontStyle=1;align=center;verticalAlign=top;childLayout=stackLayout;horizontal=1;startSize=26;horizontalStack=0;resizeParent=1;resizeParentMax=0;resizeLast=0;collapsible=1;marginBottom=0;whiteSpace=wrap;html=1;" vertex="1" parent="WIyWlLk6GJQsqaUBKTNV-1">
          <mxGeometry x="438" y="350" width="160" height="150" as="geometry" />
        </mxCell>
        <mxCell id="InkQWuYnIZFXSyvk9S77-19" value="- title: String&lt;br&gt;- interpreter : String&lt;br&gt;- year : int&lt;br&gt;- price : int" style="text;strokeColor=none;fillColor=none;align=left;verticalAlign=top;spacingLeft=4;spacingRight=4;overflow=hidden;rotatable=0;points=[[0,0.5],[1,0.5]];portConstraint=eastwest;whiteSpace=wrap;html=1;" vertex="1" parent="InkQWuYnIZFXSyvk9S77-18">
          <mxGeometry y="26" width="160" height="64" as="geometry" />
        </mxCell>
        <mxCell id="InkQWuYnIZFXSyvk9S77-20" value="" style="line;strokeWidth=1;fillColor=none;align=left;verticalAlign=middle;spacingTop=-1;spacingLeft=3;spacingRight=3;rotatable=0;labelPosition=right;points=[];portConstraint=eastwest;strokeColor=inherit;" vertex="1" parent="InkQWuYnIZFXSyvk9S77-18">
          <mxGeometry y="90" width="160" height="8" as="geometry" />
        </mxCell>
        <mxCell id="InkQWuYnIZFXSyvk9S77-21" value="+ getId(): int&lt;br style=&quot;border-color: var(--border-color);&quot;&gt;+ getPrice() : int&lt;br style=&quot;border-color: var(--border-color);&quot;&gt;+ getDescription() : String" style="text;strokeColor=none;fillColor=none;align=left;verticalAlign=top;spacingLeft=4;spacingRight=4;overflow=hidden;rotatable=0;points=[[0,0.5],[1,0.5]];portConstraint=eastwest;whiteSpace=wrap;html=1;" vertex="1" parent="InkQWuYnIZFXSyvk9S77-18">
          <mxGeometry y="98" width="160" height="52" as="geometry" />
        </mxCell>
        <mxCell id="InkQWuYnIZFXSyvk9S77-22" value="" style="endArrow=block;dashed=1;endFill=0;endSize=12;html=1;rounded=0;exitX=0.5;exitY=0;exitDx=0;exitDy=0;" edge="1" parent="WIyWlLk6GJQsqaUBKTNV-1" source="InkQWuYnIZFXSyvk9S77-10" target="InkQWuYnIZFXSyvk9S77-5">
          <mxGeometry width="160" relative="1" as="geometry">
            <mxPoint x="198" y="430" as="sourcePoint" />
            <mxPoint x="258" y="340" as="targetPoint" />
            <Array as="points">
              <mxPoint x="118" y="245" />
            </Array>
          </mxGeometry>
        </mxCell>
        <mxCell id="InkQWuYnIZFXSyvk9S77-23" value="" style="endArrow=block;dashed=1;endFill=0;endSize=12;html=1;rounded=0;exitX=0.5;exitY=0;exitDx=0;exitDy=0;" edge="1" parent="WIyWlLk6GJQsqaUBKTNV-1" source="InkQWuYnIZFXSyvk9S77-18" target="InkQWuYnIZFXSyvk9S77-5">
          <mxGeometry width="160" relative="1" as="geometry">
            <mxPoint x="338" y="450" as="sourcePoint" />
            <mxPoint x="438" y="360" as="targetPoint" />
            <Array as="points">
              <mxPoint x="518" y="245" />
            </Array>
          </mxGeometry>
        </mxCell>
        <mxCell id="InkQWuYnIZFXSyvk9S77-24" value="" style="endArrow=block;dashed=1;endFill=0;endSize=12;html=1;rounded=0;exitX=0.5;exitY=0;exitDx=0;exitDy=0;" edge="1" parent="WIyWlLk6GJQsqaUBKTNV-1" source="InkQWuYnIZFXSyvk9S77-14" target="InkQWuYnIZFXSyvk9S77-5">
          <mxGeometry width="160" relative="1" as="geometry">
            <mxPoint x="268" y="440" as="sourcePoint" />
            <mxPoint x="428" y="440" as="targetPoint" />
          </mxGeometry>
        </mxCell>
        <mxCell id="InkQWuYnIZFXSyvk9S77-26" value="Use" style="endArrow=open;endSize=12;dashed=1;html=1;rounded=0;" edge="1" parent="WIyWlLk6GJQsqaUBKTNV-1" source="zkfFHV4jXpPFQw0GAbJ--0" target="InkQWuYnIZFXSyvk9S77-5">
          <mxGeometry width="160" relative="1" as="geometry">
            <mxPoint x="308" y="280" as="sourcePoint" />
            <mxPoint x="468" y="280" as="targetPoint" />
            <mxPoint as="offset" />
          </mxGeometry>
        </mxCell>
        <mxCell id="InkQWuYnIZFXSyvk9S77-27" value="Store" style="swimlane;fontStyle=1;align=center;verticalAlign=top;childLayout=stackLayout;horizontal=1;startSize=26;horizontalStack=0;resizeParent=1;resizeParentMax=0;resizeLast=0;collapsible=1;marginBottom=0;whiteSpace=wrap;html=1;" vertex="1" parent="WIyWlLk6GJQsqaUBKTNV-1">
          <mxGeometry x="598" y="140" width="190" height="190" as="geometry" />
        </mxCell>
        <mxCell id="InkQWuYnIZFXSyvk9S77-28" value="- articles : ArrayList&amp;lt;IArticle&amp;gt;&lt;br&gt;- orders : ArrayList&amp;lt;Order&amp;gt;" style="text;strokeColor=none;fillColor=none;align=left;verticalAlign=top;spacingLeft=4;spacingRight=4;overflow=hidden;rotatable=0;points=[[0,0.5],[1,0.5]];portConstraint=eastwest;whiteSpace=wrap;html=1;" vertex="1" parent="InkQWuYnIZFXSyvk9S77-27">
          <mxGeometry y="26" width="190" height="44" as="geometry" />
        </mxCell>
        <mxCell id="InkQWuYnIZFXSyvk9S77-29" value="" style="line;strokeWidth=1;fillColor=none;align=left;verticalAlign=middle;spacingTop=-1;spacingLeft=3;spacingRight=3;rotatable=0;labelPosition=right;points=[];portConstraint=eastwest;strokeColor=inherit;" vertex="1" parent="InkQWuYnIZFXSyvk9S77-27">
          <mxGeometry y="70" width="190" height="8" as="geometry" />
        </mxCell>
        <mxCell id="InkQWuYnIZFXSyvk9S77-30" value="+ main(args : String[])&lt;br&gt;+ interactWithUser()&lt;br&gt;+ addArticle(a : IArticle)&lt;br&gt;- newOrder()&lt;br&gt;- articleExists(id : int) : boolean&lt;br&gt;- listArticles()&lt;br&gt;- listOrders()" style="text;strokeColor=none;fillColor=none;align=left;verticalAlign=top;spacingLeft=4;spacingRight=4;overflow=hidden;rotatable=0;points=[[0,0.5],[1,0.5]];portConstraint=eastwest;whiteSpace=wrap;html=1;" vertex="1" parent="InkQWuYnIZFXSyvk9S77-27">
          <mxGeometry y="78" width="190" height="112" as="geometry" />
        </mxCell>
        <mxCell id="InkQWuYnIZFXSyvk9S77-31" value="Use" style="endArrow=open;endSize=12;dashed=1;html=1;rounded=0;" edge="1" parent="WIyWlLk6GJQsqaUBKTNV-1" source="InkQWuYnIZFXSyvk9S77-27" target="zkfFHV4jXpPFQw0GAbJ--0">
          <mxGeometry x="0.1642" width="160" relative="1" as="geometry">
            <mxPoint x="318" y="340" as="sourcePoint" />
            <mxPoint x="478" y="340" as="targetPoint" />
            <Array as="points">
              <mxPoint x="693" y="80" />
            </Array>
            <mxPoint as="offset" />
          </mxGeometry>
        </mxCell>
        <mxCell id="InkQWuYnIZFXSyvk9S77-32" value="Use" style="endArrow=open;endSize=12;dashed=1;html=1;rounded=0;" edge="1" parent="WIyWlLk6GJQsqaUBKTNV-1" source="InkQWuYnIZFXSyvk9S77-29">
          <mxGeometry width="160" relative="1" as="geometry">
            <mxPoint x="318" y="260" as="sourcePoint" />
            <mxPoint x="398" y="214" as="targetPoint" />
          </mxGeometry>
        </mxCell>
      </root>
    </mxGraphModel>
  </diagram>
</mxfile>
